Coordinates
version=1
nRows=33
nColumns=33
inDegrees=yes

Units are S.I. units (second, meters, Newtons, ...)
Angles are in degrees.

endheader
time	ground_thorax_rot_x	ground_thorax_rot_y	ground_thorax_rot_z	ground_thorax_tx	ground_thorax_ty	ground_thorax_tz	clav_prot_r	clav_elev_r	scapula_abduction_r	scapula_elevation_r	scapula_upward_rot_r	scapula_winging_r	shoulder_elv_r	plane_of_elev_r	axial_rot_r	elbow_flexion_r	pro_sup_r	wrist_flex_r	wrist_dev_r	clav_prot_l	clav_elev_l	scapula_abduction_l	scapula_elevation_l	scapula_upward_rot_l	scapula_winging_l	shoulder_elv_l	plane_of_elev_l	axial_rot_l	elbow_flexion_l	pro_sup_l	wrist_flex_l	wrist_dev_l	
6.1600	27.076754	30.913188	43.800730	43.227886	772.254980	-43.680772	12.966047	35.807740	25.834553	45.000000	-45.000000	-1160.537796	-2447.615468	22.590499	180.000000	364.850168	-167.749152	13.388469	11.667813	-12.886806	-45.000000	-36.664473	45.000000	-45.000000	-3498.238065	1516.326301	24.828261	24.398457	1791.604673	50.968350	10.293173	-16.567923	
6.1700	27.172281	30.744153	43.561590	40.968997	772.294293	-43.636990	12.947040	35.798483	25.742542	45.000000	-45.000000	-1160.623195	-2447.559180	22.605249	180.000000	364.892084	-167.578602	13.404809	11.680499	-12.835535	-45.000000	-36.696735	45.000000	-45.000000	-3498.151878	1516.355172	24.821586	24.290610	1791.609813	51.042964	10.303514	-16.590114	
6.1800	27.263958	30.574038	43.324647	38.689010	772.373120	-43.593243	12.929522	35.770333	25.646428	45.000000	-45.000000	-1160.697809	-2447.498463	22.610643	180.000000	364.931324	-167.423702	13.416751	11.698319	-12.786222	-45.000000	-36.726612	45.000000	-45.000000	-3498.076111	1516.393008	24.805047	24.187780	1791.611432	51.107789	10.316537	-16.622660	
6.1900	27.353276	30.402597	43.088189	36.390227	772.493422	-43.550267	12.912420	35.750516	25.555205	45.000000	-45.000000	-1160.777512	-2447.444903	22.616085	180.000000	364.973677	-167.285040	13.430543	11.719894	-12.733926	-45.000000	-36.761981	45.000000	-45.000000	-3497.995565	1516.425756	24.791914	24.093724	1791.611959	51.162967	10.331979	-16.650732	
6.2000	27.441337	30.228130	42.850311	34.074347	772.656921	-43.508768	12.893935	35.724075	25.463043	45.000000	-45.000000	-1160.853729	-2447.389718	22.619495	180.000000	365.012111	-167.162557	13.443648	11.747482	-12.682120	-45.000000	-36.794620	45.000000	-45.000000	-3497.917362	1516.461670	24.778490	24.006347	1791.610568	51.206722	10.351064	-16.683275	
6.2100	27.525949	30.051776	42.613737	31.742703	772.865102	-43.469446	12.877135	35.700491	25.373036	45.000000	-45.000000	-1160.931714	-2447.338263	22.623471	180.000000	365.050291	-167.056749	13.457037	11.779130	-12.627378	-45.000000	-36.830404	45.000000	-45.000000	-3497.837207	1516.496138	24.766273	23.927507	1791.606793	51.238889	10.372811	-16.712837	
6.2200	27.609714	29.872809	42.375126	29.396285	773.119305	-43.432980	12.858539	35.674783	25.283522	45.000000	-45.000000	-1161.009454	-2447.286624	22.627992	180.000000	365.084076	-166.967742	13.470205	11.816631	-12.572068	-45.000000	-36.864853	45.000000	-45.000000	-3497.756398	1516.532355	24.756160	23.856263	1791.601424	51.258555	10.398241	-16.743962	
6.2300	27.689670	29.693174	42.138457	27.036173	773.420761	-43.400039	12.841623	35.649162	25.194488	45.000000	-45.000000	-1161.088017	-2447.237499	22.633195	180.000000	365.115423	-166.895602	13.483101	11.858521	-12.513313	-45.000000	-36.901588	45.000000	-45.000000	-3497.673857	1516.569027	24.746401	23.794245	1791.593613	51.265778	10.426397	-16.772476	
6.2400	27.768696	29.511534	41.899580	24.663498	773.770681	-43.371280	12.823344	35.623051	25.105683	45.000000	-45.000000	-1161.168519	-2447.188793	22.641096	180.000000	365.141099	-166.839935	13.496295	11.906115	-12.452951	-45.000000	-36.936981	45.000000	-45.000000	-3497.589433	1516.606823	24.740799	23.741102	1791.584517	51.260370	10.458391	-16.801176	
6.2500	27.842794	29.330528	41.663071	22.279566	774.170292	-43.347360	12.807062	35.595556	25.016177	45.000000	-45.000000	-1161.250074	-2447.141806	22.649924	180.000000	365.163904	-166.799622	13.509105	11.957944	-12.388598	-45.000000	-36.974387	45.000000	-45.000000	-3497.504567	1516.645510	24.736814	23.698740	1791.572925	51.242744	10.493247	-16.827219	
6.2600	27.916030	29.148514	41.425370	19.885665	774.620897	-43.328924	12.789211	35.568800	24.928771	45.000000	-45.000000	-1161.334809	-2447.096536	22.661442	180.000000	365.182341	-166.772991	13.522327	12.015398	-12.322637	-45.000000	-37.010746	45.000000	-45.000000	-3497.417492	1516.684165	24.737022	23.667807	1791.559849	51.213154	10.532023	-16.852905	
6.2700	27.985805	28.966685	41.188562	17.483339	775.123858	-43.316573	12.772705	35.540861	24.842173	45.000000	-45.000000	-1161.420714	-2447.052594	22.675129	180.000000	365.198924	-166.758050	13.535350	12.077922	-12.253786	-45.000000	-37.049588	45.000000	-45.000000	-3497.329890	1516.723248	24.740157	23.650590	1791.543063	51.172415	10.574491	-16.876598	
6.2800	28.053441	28.784536	40.952494	15.074245	775.680574	-43.310786	12.755966	35.513087	24.758301	45.000000	-45.000000	-1161.508931	-2447.011597	22.690559	180.000000	365.213070	-166.753146	13.548799	12.145160	-12.183058	-45.000000	-37.088989	45.000000	-45.000000	-3497.242427	1516.762347	24.745874	23.645742	1791.522649	51.120941	10.620692	-16.899082	
6.2900	28.115462	28.604833	40.720564	12.660305	776.292371	-43.311819	12.740861	35.483905	24.676038	45.000000	-45.000000	-1161.598251	-2446.974672	22.704500	180.000000	365.226272	-166.756980	13.562541	12.215435	-12.110292	-45.000000	-37.131800	45.000000	-45.000000	-3497.156628	1516.803339	24.753441	23.653098	1791.496763	51.059204	10.670013	-16.918781	
6.3000	28.179810	28.422188	40.483404	10.243832	776.960351	-43.319593	12.724129	35.456491	24.596443	45.000000	-45.000000	-1161.691703	-2446.940863	22.724617	180.000000	365.236375	-166.768388	13.578185	12.292720	-12.036720	-45.000000	-37.174175	45.000000	-45.000000	-3497.071487	1516.841248	24.768671	23.670500	1791.464734	50.987463	10.725846	-16.939930	
6.3100	28.237605	28.240561	40.252910	7.827386	777.685369	-43.333636	12.709201	35.428574	24.519523	45.000000	-45.000000	-1161.785572	-2446.911315	22.742644	180.000000	365.245025	-166.787704	13.594813	12.368719	-11.964883	-45.000000	-37.221817	45.000000	-45.000000	-3496.989074	1516.885701	24.785303	23.694058	1791.421998	50.906504	10.784492	-16.955786	
6.3200	28.290482	28.060051	40.032255	5.414030	778.467925	-43.353077	12.695478	35.398482	24.447051	45.000000	-45.000000	-1161.881825	-2446.883154	22.757450	180.000000	365.250814	-166.815062	13.613661	12.445624	-11.887653	-45.000000	-37.271793	45.000000	-45.000000	-3496.906051	1516.931168	24.798183	23.723765	1791.378593	50.813798	10.846071	-16.972103	
6.3300	28.333344	27.885231	39.830220	3.007033	779.308376	-43.376715	12.685262	35.364243	24.378383	45.000000	-45.000000	-1161.978555	-2446.854626	22.762254	180.000000	365.254878	-166.852093	13.633764	12.517086	-11.806966	-45.000000	-37.326209	45.000000	-45.000000	-3496.822188	1516.981421	24.801988	23.759309	1791.338280	50.706827	10.906374	-16.985302	
6.3400	28.380282	27.706797	39.630445	0.609984	780.207005	-43.403138	12.673015	35.330934	24.317509	45.000000	-45.000000	-1162.082405	-2446.821607	22.770670	180.000000	365.254896	-166.899611	13.656980	12.593141	-11.721254	-45.000000	-37.377807	45.000000	-45.000000	-3496.730919	1517.023188	24.806571	23.806588	1791.309706	50.582647	10.971564	-17.006595	
6.3500	28.427084	27.526583	39.436098	-1.773856	781.164362	-43.430891	12.662208	35.297038	24.261091	45.000000	-45.000000	-1162.187001	-2446.785287	22.779374	180.000000	365.254717	-166.960242	13.680461	12.666083	-11.636774	-45.000000	-37.433371	45.000000	-45.000000	-3496.637571	1517.064622	24.809730	23.863007	1791.285307	50.441696	11.038364	-17.027544	
6.3600	28.478935	27.342594	39.241017	-4.141042	782.181051	-43.458638	12.651192	35.263570	24.210058	45.000000	-45.000000	-1162.296198	-2446.746167	22.793828	180.000000	365.253722	-167.035747	13.704644	12.741653	-11.547886	-45.000000	-37.487307	45.000000	-45.000000	-3496.541279	1517.100534	24.815202	23.934860	1791.267828	50.283087	11.111169	-17.054490	
6.3700	28.534405	27.157474	39.044019	-6.488895	783.258034	-43.485341	12.641458	35.231280	24.160704	45.000000	-45.000000	-1162.408034	-2446.707316	22.811983	180.000000	365.251916	-167.128877	13.728446	12.814464	-11.461465	-45.000000	-37.541064	45.000000	-45.000000	-3496.447827	1517.138463	24.827643	24.020263	1791.245990	50.108664	11.189588	-17.080486	
6.3800	28.601775	26.964825	38.832087	-8.815053	784.396261	-43.510393	12.628787	35.204653	24.118581	45.000000	-45.000000	-1162.526917	-2446.668390	22.843350	180.000000	365.250489	-167.240192	13.752556	12.891789	-11.377091	-45.000000	-37.593841	45.000000	-45.000000	-3496.354649	1517.171934	24.856024	24.122914	1791.216581	49.920030	11.280128	-17.111624	
6.3900	28.670455	26.773656	38.618222	-11.118187	785.596857	-43.533731	12.619579	35.178145	24.076503	45.000000	-45.000000	-1162.646512	-2446.632735	22.877425	180.000000	365.251215	-167.370799	13.775276	12.963262	-11.295959	-45.000000	-37.648925	45.000000	-45.000000	-3496.270609	1517.214844	24.892183	24.238022	1791.168053	49.719807	11.378133	-17.136850	
6.4000	28.735696	26.588035	38.414932	-13.396864	786.860511	-43.555870	12.612899	35.149549	24.039205	45.000000	-45.000000	-1162.769695	-2446.596031	22.906771	180.000000	365.248762	-167.520768	13.799689	13.029578	-11.210440	-45.000000	-37.704374	45.000000	-45.000000	-3496.188254	1517.262913	24.926726	24.365772	1791.116463	49.504575	11.479883	-17.160791	
6.4100	28.795610	26.410837	38.224186	-15.650264	788.187835	-43.577888	12.610008	35.117590	24.002827	45.000000	-45.000000	-1162.897059	-2446.558305	22.929439	180.000000	365.239104	-167.689842	13.827705	13.088289	-11.120940	-45.000000	-37.758546	45.000000	-45.000000	-3496.109527	1517.320426	24.958354	24.507574	1791.064276	49.271151	11.582340	-17.181018	
6.4200	28.851634	26.237393	38.046036	-17.877234	789.578890	-43.601334	12.607763	35.084275	23.974258	45.000000	-45.000000	-1163.027714	-2446.516976	22.946424	180.000000	365.223369	-167.876522	13.860452	13.141856	-11.028194	-45.000000	-37.817049	45.000000	-45.000000	-3496.028705	1517.381084	24.984390	24.661104	1791.017691	49.015865	11.684055	-17.199333	
6.4300	28.904490	26.066425	37.875837	-20.076856	791.033566	-43.628105	12.607462	35.049090	23.949449	45.000000	-45.000000	-1163.160556	-2446.475864	22.961853	180.000000	365.203666	-168.078354	13.898014	13.190639	-10.931936	-45.000000	-37.880882	45.000000	-45.000000	-3495.950454	1517.450015	25.006650	24.829935	1790.968922	48.737819	11.786277	-17.213126	
6.4400	28.952078	25.899135	37.717807	-22.247557	792.551104	-43.660300	12.609953	35.009743	23.929588	45.000000	-45.000000	-1163.291318	-2446.430131	22.972002	180.000000	365.182855	-168.294044	13.939490	13.233757	-10.832216	-45.000000	-37.951971	45.000000	-45.000000	-3495.875524	1517.525860	25.020701	25.008585	1790.920995	48.434565	11.885977	-17.220795	
6.4500	28.999405	25.732438	37.559819	-24.388024	794.130645	-43.700070	12.613331	34.971492	23.915721	45.000000	-45.000000	-1163.425452	-2446.385832	22.983594	180.000000	365.161719	-168.521762	13.986050	13.274184	-10.732030	-45.000000	-38.026744	45.000000	-45.000000	-3495.806125	1517.609750	25.036797	25.206209	1790.868889	48.106436	11.987259	-17.223993	
6.4600	29.050973	25.563907	37.395789	-26.496353	795.770718	-43.749464	12.617031	34.934336	23.909434	45.000000	-45.000000	-1163.560940	-2446.339786	22.999741	180.000000	365.145869	-168.760692	14.036674	13.315897	-10.633046	-45.000000	-38.106002	45.000000	-45.000000	-3495.739291	1517.692471	25.059427	25.413826	1790.813020	47.754073	12.093029	-17.226515	
6.4700	29.110574	25.390818	37.219200	-28.570749	797.469831	-43.810273	12.619493	34.903004	23.913384	45.000000	-45.000000	-1163.705585	-2446.298637	23.025772	180.000000	365.132535	-169.010577	14.094130	13.361462	-10.537109	-45.000000	-38.182895	45.000000	-45.000000	-3495.672021	1517.773694	25.095919	25.641133	1790.752414	47.379753	12.207663	-17.232786	
6.4800	29.178789	25.212917	37.034469	-30.608699	799.225977	-43.883863	12.620201	34.875551	23.933708	45.000000	-45.000000	-1163.859415	-2446.258648	23.057704	180.000000	365.123292	-169.273413	14.158941	13.413491	-10.443768	-45.000000	-38.256827	45.000000	-45.000000	-3495.598472	1517.845271	25.144113	25.883193	1790.696136	46.983521	12.331778	-17.248690	
